<svg xmlns="http://www.w3.org/2000/svg" width="824" height="633" viewBox="0 0 824 633"><path d="M 6.91 0 L 22.52 0 A 6.91 6.91 0 0 0 36.33 0 L 51.95 0 A 6.91 6.91 0 0 0 65.76 0 L 81.38 0 A 6.91 6.91 0 0 0 95.19 0 L 110.81 0 A 6.91 6.91 0 0 0 124.62 0 L 140.24 0 A 6.91 6.91 0 0 0 154.05 0 L 169.67 0 A 6.91 6.91 0 0 0 183.48 0 L 199.09 0 A 6.91 6.91 0 0 0 212.91 0 L 228.52 0 A 6.91 6.91 0 0 0 242.33 0 L 257.95 0 A 6.91 6.91 0 0 0 271.76 0 L 287.38 0 A 6.91 6.91 0 0 0 301.19 0 L 316.81 0 A 6.91 6.91 0 0 0 330.62 0 L 346.24 0 A 6.91 6.91 0 0 0 360.05 0 L 375.67 0 A 6.91 6.91 0 0 0 389.48 0 L 405.09 0 A 6.91 6.91 0 0 0 418.91 0 L 434.52 0 A 6.91 6.91 0 0 0 448.33 0 L 463.95 0 A 6.91 6.91 0 0 0 477.76 0 L 493.38 0 A 6.91 6.91 0 0 0 507.19 0 L 522.81 0 A 6.91 6.91 0 0 0 536.62 0 L 552.24 0 A 6.91 6.91 0 0 0 566.05 0 L 581.67 0 A 6.91 6.91 0 0 0 595.48 0 L 611.09 0 A 6.91 6.91 0 0 0 624.91 0 L 640.52 0 A 6.91 6.91 0 0 0 654.33 0 L 669.95 0 A 6.91 6.91 0 0 0 683.76 0 L 699.38 0 A 6.91 6.91 0 0 0 713.19 0 L 728.81 0 A 6.91 6.91 0 0 0 742.62 0 L 758.24 0 A 6.91 6.91 0 0 0 772.05 0 L 787.67 0 A 6.91 6.91 0 0 0 801.48 0 L 817.09 0 A 6.91 6.91 0 0 0 824 6.91 L 824 21.87 A 6.91 6.91 0 0 0 824 35.68 L 824 50.64 A 6.91 6.91 0 0 0 824 64.45 L 824 79.41 A 6.91 6.91 0 0 0 824 93.22 L 824 108.19 A 6.91 6.91 0 0 0 824 122 L 824 136.96 A 6.91 6.91 0 0 0 824 150.77 L 824 165.73 A 6.91 6.91 0 0 0 824 179.54 L 824 194.5 A 6.91 6.91 0 0 0 824 208.31 L 824 223.28 A 6.91 6.91 0 0 0 824 237.09 L 824 252.05 A 6.91 6.91 0 0 0 824 265.86 L 824 280.82 A 6.91 6.91 0 0 0 824 294.63 L 824 309.59 A 6.91 6.91 0 0 0 824 323.41 L 824 338.37 A 6.91 6.91 0 0 0 824 352.18 L 824 367.14 A 6.91 6.91 0 0 0 824 380.95 L 824 395.91 A 6.91 6.91 0 0 0 824 409.72 L 824 424.69 A 6.91 6.91 0 0 0 824 438.5 L 824 453.46 A 6.91 6.91 0 0 0 824 467.27 L 824 482.23 A 6.91 6.91 0 0 0 824 496.04 L 824 511 A 6.91 6.91 0 0 0 824 524.81 L 824 539.78 A 6.91 6.91 0 0 0 824 553.59 L 824 568.55 A 6.91 6.91 0 0 0 824 582.36 L 824 597.32 A 6.91 6.91 0 0 0 824 611.13 L 824 626.09 A 6.91 6.91 0 0 0 817.09 633 L 801.48 633 A 6.91 6.91 0 0 0 787.67 633 L 772.05 633 A 6.91 6.91 0 0 0 758.24 633 L 742.62 633 A 6.91 6.91 0 0 0 728.81 633 L 713.19 633 A 6.91 6.91 0 0 0 699.38 633 L 683.76 633 A 6.91 6.91 0 0 0 669.95 633 L 654.33 633 A 6.91 6.91 0 0 0 640.52 633 L 624.91 633 A 6.91 6.91 0 0 0 611.09 633 L 595.48 633 A 6.91 6.91 0 0 0 581.67 633 L 566.05 633 A 6.91 6.91 0 0 0 552.24 633 L 536.62 633 A 6.91 6.91 0 0 0 522.81 633 L 507.19 633 A 6.91 6.91 0 0 0 493.38 633 L 477.76 633 A 6.91 6.91 0 0 0 463.95 633 L 448.33 633 A 6.91 6.91 0 0 0 434.52 633 L 418.91 633 A 6.91 6.91 0 0 0 405.09 633 L 389.48 633 A 6.91 6.91 0 0 0 375.67 633 L 360.05 633 A 6.91 6.91 0 0 0 346.24 633 L 330.62 633 A 6.91 6.91 0 0 0 316.81 633 L 301.19 633 A 6.91 6.91 0 0 0 287.38 633 L 271.76 633 A 6.91 6.91 0 0 0 257.95 633 L 242.33 633 A 6.91 6.91 0 0 0 228.52 633 L 212.91 633 A 6.91 6.91 0 0 0 199.09 633 L 183.48 633 A 6.91 6.91 0 0 0 169.67 633 L 154.05 633 A 6.91 6.91 0 0 0 140.24 633 L 124.62 633 A 6.91 6.91 0 0 0 110.81 633 L 95.19 633 A 6.91 6.91 0 0 0 81.38 633 L 65.76 633 A 6.91 6.91 0 0 0 51.95 633 L 36.33 633 A 6.91 6.91 0 0 0 22.52 633 L 6.91 633 A 6.91 6.91 0 0 0 0 626.09 L 0 611.13 A 6.91 6.91 0 0 0 0 597.32 L 0 582.36 A 6.91 6.91 0 0 0 0 568.55 L 0 553.59 A 6.91 6.91 0 0 0 0 539.78 L 0 524.81 A 6.91 6.91 0 0 0 0 511 L 0 496.04 A 6.91 6.91 0 0 0 0 482.23 L 0 467.27 A 6.91 6.91 0 0 0 0 453.46 L 0 438.5 A 6.91 6.91 0 0 0 0 424.69 L 0 409.72 A 6.91 6.91 0 0 0 0 395.91 L 0 380.95 A 6.91 6.91 0 0 0 0 367.14 L 0 352.18 A 6.91 6.91 0 0 0 0 338.37 L 0 323.41 A 6.91 6.91 0 0 0 0 309.59 L 0 294.63 A 6.91 6.91 0 0 0 0 280.82 L 0 265.86 A 6.91 6.91 0 0 0 0 252.05 L 0 237.09 A 6.91 6.91 0 0 0 0 223.28 L 0 208.31 A 6.91 6.91 0 0 0 0 194.5 L 0 179.54 A 6.91 6.91 0 0 0 0 165.73 L 0 150.77 A 6.91 6.91 0 0 0 0 136.96 L 0 122 A 6.91 6.91 0 0 0 0 108.19 L 0 93.22 A 6.91 6.91 0 0 0 0 79.41 L 0 64.45 A 6.91 6.91 0 0 0 0 50.64 L 0 35.68 A 6.91 6.91 0 0 0 0 21.87 L 0 6.91 A 6.91 6.91 0 0 0 6.91 0 Z" fill="#000"></path></svg>